<mxfile host="app.diagrams.net" agent="Mozilla/5.0 (Windows NT 10.0; Win64; x64) AppleWebKit/537.36 (KHTML, like Gecko) Chrome/137.0.0.0 Safari/537.36" version="27.2.0">
  <diagram name="第 1 页" id="eNdk_8_G837MLDPiqhgv">
    <mxGraphModel dx="2066" dy="1161" grid="1" gridSize="10" guides="1" tooltips="1" connect="1" arrows="1" fold="1" page="1" pageScale="1" pageWidth="4681" pageHeight="3300" math="0" shadow="0">
      <root>
        <mxCell id="0" />
        <mxCell id="1" parent="0" />
        <mxCell id="gPzGehX2PZDCMDGjAwQs-1" value="" style="group;movable=1;resizable=1;rotatable=1;deletable=1;editable=1;locked=0;connectable=1;" vertex="1" connectable="0" parent="1">
          <mxGeometry x="790" y="340" width="1160.04" height="944" as="geometry" />
        </mxCell>
        <mxCell id="gPzGehX2PZDCMDGjAwQs-2" value="" style="shape=image;verticalLabelPosition=bottom;labelBackgroundColor=default;verticalAlign=top;aspect=fixed;imageAspect=0;image=data:image/png,iVBORw0KGgoAAAANSUhEUgAAAZAAAAEsCAYAAADtt+XCAAAAAXNSR0IArs4c6QAAAARnQU1BAACxjwv8YQUAAAAJcEhZcwAADsMAAA7DAcdvqGQAACqpSURBVHhe7Z1ByCxZmabvcqA2Upvr5kJTYOHSZS976dKlG6GX4mZaG4YCFzWLAV3YSG+6wYUKLnqj1GzEHqZECpHComlFZUoG7S6k0FGcqaZACynkn//J+723zo0b+WdEZpz8MyKfB4LMiIw4cc53vvO+JyLzj/+BiIiIiIiIiIiIiIiIiIiIiIiIiIiIiIiIiIiIiIiIiIiIiIiIiIiIiIiIiIiIiIiIiIiIiIiIiIiIiIiIiIiIiIiIiIj04EZEZGOUvElvKt4iIpuh5E16U/EWEdkMJW/Sm4q3iMhmKHmT3lS8RUQ2Q8mb9KbiLSKyGUrepDcVbxGRzVDyJr2peIuIbIaSN+lNxVtEZDOUvElvKt4iIpuh5E16U/EWEdkMJW/Sm4q3iMhmKHmT3lS8RUQ2Q8mb9KbiLSKyGUrepDcVbxGRzVDyJr2peIuIbIaSN+lNxVtEZDOUvElvKt4iIpuh5E16U/EWEdkMJW/Sm4q3iMhmKHmT3lS8ReSeeeeP79c7OZWSN+lNxVtE7pmPf+XHN6/89He1JqdQ8ia9qXiLyD3zV//wrzdfe+PXtSanUPImval4i8g9o4EsR8mb9KbiLSL3zEe/+PrNy//8b7Ump1DyJr2peIvIPfMX/+0HGshClLxJbyreInLPaCDLUfImval4i8g9o4EsR8mb9KbiLSL3jAayHCVv0puKt4jcMxrIcpS8SW8q3iJyz2ggy1HyJr2peIvIPYOBvPTtX9SanELJm/Sm4i0i98yHPv/azV//0/+qNTmFkjfpTcVbRO6ZB5/7rgayECVv0puKt4jcMxrIcpS8SW8q3tIJnq767//3vVoT2Y8Gshwlb9Kbird0gkd0f/m1X9WayH40kOUoeZPeVLylEzxh1Z9myhQ0kOUoeZPeVLylExqITEUDWY6SN+lNxVs6oYHIVDSQ5Sh5k95UvKUT/nGYTEUDWY6SN+lNxVs6gYEoCjIFDWQ5St6kNxVv6YQGIlPRQJaj5E16U/GWTmggMhUNZDlK3qQ3FW/phAYiU8FAPvHVn9SanELJm/Sm4i2d0EBkCu/88f2dgfCrPTmdkjfpTcVbOqGBnManv/nzmzd/+4da2y487kYDWY6SN+lNxVs68eGXv6+BnAAG/LU3fl1r20UDWZaSN+lNxVs6gSh88hs/qzWZiwYix1DyJr2peEsnFIXT0EDkGErepDcVb+mEonAa3AK8hqcZayDLUvImval4SycUhdMgftfwLDENZFlK3qQ3FW/phKJwGhqIHEPJm/Sm4i2dUBROQwORYyh5k95UvKUTisJpaCByDCVv0puKt3RCUTgNDUSOoeRNelPxlk4oCqehgcgxlLxJbyre0glF4TSIH48z2ToayLKUvElvKt7SCUXheH7z7p928buGR8F87xf/z1xZkJI36U3FWzoQAfzLv/+X2iJzyKxcA5G5lLxJbyre0oEIII/jkPlcm4F86POv3Xzs796oLXIKJW/Sm4q3dEADOY1rMxDyxFxZhpI36U3FWzqggZyGBiLHUvImval4Swc0kNPQQORYSt6kNxVv6YAGchqJ38e/8uPasl00kGUpeZPeVLylAxrIaSR+1/DLJA1kWUrepDcVb+mABnIaGogcS8mb9KbiLR3QQE5DA5FjKXmT3lS8pQMayGloIHIsJW/Sm4q3dEADOQ1EVQORYyh5k95UvKUDGshpaCByLCVv0puKt3RAAzmNazKQ77z5+5uPfvF1c2UhSt6kNxVv6YAGchoYyIdf/v5OWLfO19749c4ozZVlKHmT3lS8z8YnvvqTm3f++H6tbZsfvf3uThB4SJ7M55pu62ggy1LyJr2peJ8NZuTMzK8BBBBRoM0yHw1EjqXkTXpT8T4LuaXz+lv/UVu2jQZyGhqIHEvJm/Sm4n0WYiAIwzWggZyGBiLHUvImval4nwUNROaggcixlLxJbyreZ0EDkTloIHIsJW/Sm4r3WXjzt3/YiSm/eb8GNJDTuDYD+eQ3fnbzn/7L92qLnELJm/Sm4n0WEATElMFyDWggp3FtBsI/zjJXlqHkTXpT8T4LGojMQQORYyl5k95UvM+CBiJzuKbHe2ggy1LyJr2peJ8FDUTmQJ4QPw1E5lLyJr2peJ8FDUTmQJ5cyxfLGsiylLxJbyreZ0EDkTlck6hqIMtS8ia9qXifhRjIF159q7ZsGw3kNDQQOZaSN+lNxfss8KUoA+Tlf/632rJtNJDT0EDkWErepDcV77PAILlGA+Ee/nvv/7m2ylQ0EDmWkjfpTcX7LFyrgfAromt5hP2SaCByLCVv0puK91m4NgOJKGggx6GByLGUvElvKt5nQQOROWggciwlb9KbivdZ0EBkDtckqvwy8aVv/0IDWYiSN+lNxfssaCAyh2syEMYEiwayDCVv0puK91mIgfzNf//ftWXbaCCnoYHIsZS8SW8q3mchBoIoXAMayGloIHIsJW/Sm4r3WdBAZA4aiBxLyZv0puJ9FjQQmUPi9+GXv3/zm3f/VFu3iQayLCVv0puK91nglyaIgQYiU/jya7/afV92DfGLgfjUgmUoeZPeVLzPAgMEMdBAZAoR1WsyEHNlGUrepDcV77OggcgcNBA5lpI36U3F+yxoIDIHDUSOpeRNelPxPgsaiMxBA5FjKXmT3lS8zwID5GN/98bNJ776k9qybTSQ09BA5FhK3qQ3Fe+zwADh8eYs14AGchoaiBxLyZv0puJ9Fq7VQGgv/xtE5qGByLGUvElvKt5nQQOROWggciwlb9KbivdZ0EBkDhqIHEvJm/Sm4n0W9hkI4rrFQRNR0ECO45pE9Zraeg5K3qQ3Fe+zEDEdGsjHv/Lj3WdbI6KggRxH4jdVVLnae+eP79faupjbVrmbkjfpTcX7LPBcI37COzQQftrL4N8aEQUN5DjmxA/j4EGEa41z2qqBLEPJm/Sm4n0WMIl8J9DCoNFAZMic+CG6GAjfO62RtFUDWYaSN+lNxfssYBL83+ePfvH12vIYnkC6xT8unCOA8ixz4vfmb/+wM5B//MHbtWVdpK0ayDKUvElvKt5nAQPJIGlh4A+vSrZAROGT3/jZzT/96/+prTKVxG+KgfA5ecT+a4Tbuzy+XgNZhpI36U3F+yyMGUjuXY8ZCFcra565RwBp91pvrdwnid8cAyFn1khyRANZhpI36U3F+yyMGUjuXY8ZCPt9+ps/r7X1oYGcRmblcwyEWK8RDWRZSt6kNxXvs3CXgQy/F4EPff61UWNZCxrIaSRuUwyEW4RbMxD/M+HxlLxJbyreZ+EuA2m3hX3GshY0kOP40dvv7l7nGAj78e+S+ZuiNTI0EAxxrW25BErepDcV77MwZiAIA+tDA2H2xa+zuApZKxrIfDKh4LuxuQZCDq31ijVt/cu//5eb19/6j2fGicyj5E16U/E+C3MMBCFhG2KyVjSQ+SCe9Dn9P9dA+INUljUybCvf/a059++bkjfpDYl6rnutDBK+FG2vKvYZCELCbIztiMka0UDmQz4cayDsN8yjtTBsK+sayPGUvElvpgzOpcggaQcG58YouF3Vwnbqxowy98TXhgYyn3wZzgRijoF84dW3dvvzPcgaGbaVdeKw1md73Tclb9Ib/gL8lZ/+rsLelwyS1kAQDP7QbjjbioGc0+CWZmggEQbZT/IjsWJ9yh9iJtbDPFoLaWvynVfastar7/um5E16k8Q9BxGCdpBzbuqwz0DW/FfcQwPh/VpvsZwL4jQ0kGGOfufN3z9z2zWx5vboGmftaaMGsgwlb9Ib/nKXy/9zkMExxUByZcJ3NGt/vlHEgViv+Vdl54C+PmQg3KYaTioS697fmfW6nbrPQHjGl8yn5E16k4HXEwYHM8Y5BpLt56hfL1L3iMNYO+VpiNchA+FzfozRkljnZ7A9yGN3epSfNg4NhPcyn5I36Q0zvp6PC2E2yEBg5jZmIDl/uw0iHL3r15NcPbVCSDv9C+P9xED4Xq6NWwzkN+/+afc5+7XEQHre8iSHOXfqsiRpY8YIV1IsGshxlLxJbzJAe5Hf9WdWxSu/uIqIZuBzWwJxCKlXbmWtkaEA8kosvK+9H3IhIj2MH2RCwnOyWvLcrORTDzL56XHLN23saSBr/TXjMZS8SW+Y6fX8XxwZdBhBOzgiohnw7TaIcJD05/jjMG5PLH1lMBRAHk2hgdzNIQPJ//1gW0v26TnhoGzO3eOJv6l/O0Z4jA8/GFiCXD21k7QtU/ImvSFZSdpeYFARhDkGwmySWSXCPvzimauapU2P8pYWhohC2kj7iUWve/RbILcziVvil1fIhIRtLdnnmAkHEwf6/9AEgvLHzr0EqX87Rnifdp8KRkTdr+UqpORNesOMrucDCzPoMATOw/mmGEi2w/CnmQg9ZY7N5NmPATgX6rb0w+siCmlLDOSY+l0LxIwYEbfEL68QAxn2VfbBBIZ/lHqIlHnI2OlDzOnUyQu3wIbf06T+vQyEcraee5hj8qLkTXrDJW3717vHCvA+krgMvphEaxb5ovkuA2HAtn/sGJEZ+wNIjjnmr5ExqaWNNKKQtiA+nGfLg/hU0rfELfHLKzCTxiAQ1/aKAeHI7R76kQnLXbey2pl4cjTHj+UV0Iecl+UUqN/QhNLGGAj1adt9KsSDMofGdRfEt524zYVjD13VLQmxyuSh5E16Q7ARNZIVmB0t+TgIBh2Jy2tMIoMEMkjuMpB8f5LfxPMewRi75cTA5HxzEh8TJQYsh6DcqbcB0ra0hTZS96VEYYsQM/qPGCV+eQVeE0f6OoLY5hTb6cuIyVDEWOdzJi4QcaXs/OhjrI+pBzl3ykSDc1Mvfm7ckjamHdShbfepkH9p41Qw4GE9D0F/pE84/py/oES7aCM8+Ox3/2tJnPSEYDPzimnkHvRSX7YlcSOg+wyEQdn+0VREN7APxzMAmckzS2R9SJ6rlbIQh33fbaQO1ImyOO7QjInvZaYabNqWtkT4lhIF6pJZcw8oOzGfwym5E/EnRsmTNhfYTv9nyfY2p9hGzlFO+raNE7nB5/klV/bHUCif92MzdfqTfcfybirUh/KHZYwZCHm71C++aCv5HdOcAvsPx+UhGH/0C9DGuQZ0CunHxLgkTnpSsd8FHDKD33c/mGSaIyjp1Ay8fQbSbgP2Z2khGalXykHIh2LFZywpi2QemzFmkFIOZVJ2ym0ZXsm0BsUslbrvo6eBYKBchVGfqVdEMNa+fbdsqD8xSvm8sm1YRgtlIdyHTIQcGhMz4sNCvJITbS4gqMxs08/Z3uZP2kRsiDVtoN4hfU+uA5+lrMxix4Q7/cnnc0kece7kUEtuwaUdnKNt9xjEeGyGTx2pK+ckzuzXtnEK9DVjhwnYnKsIxiRt49y0gXMC5SWP0k9ToJy78q0l341yngefe/WdkjjpScV+19F0FAlMEozNwIDP9s3oW2IyJC5lJoE5R3u/OoOyFQAYGzwIB/UiQSm/LSeQQCmTfdh3bMBHKDie83J+Fo5j0ACfDcWQdfZDoHhlfR+pR9rCvswEpw5ioC5jAyhlE4+77vW3MBipQ9t/iEMG/JCYb3IB4aPubNs3qGkf50gM90E5xH8oJukHPueVz3mfmPGaXOI8Ebfs24JB8Dn1jZABcWMb7YGUl/Okn4Yk35J/Y1AHzjv8nPO1/TXMydQ/r3zetnsMYjyMYcogv6kHfU07ed9esR2CuhIXoN379GAI9SGWxIk2p52UQb1yi5DyiRH7jE1WYzbUnXofmpAA9U3Ztwby7yVx0pOK/a6TMuugs8dmYIgGgycDDzhmbDCRLElC3meQUgbv+Sz7tQMntPuEXNInKRnkrVCRZBhctqc9Y1cqCEuSjWSnzQxs9mU7gko5rCcWMaTUA6Fh2ZfcaUOEgHIPiUILseIYyuHc1CdCn/6KKdwFdWVfTI/jWjFNfIhBC+eLQBPLtB1a0xoaCf3IMYdMjTqwT5tntIXjWYhRcqKNGbGnfI5PbGCYP8Bn5Cr78xqhoj0IauLAsawTX45JLgDtTvxzjuTxGBk/w7ykrpTJ9uRVmzcpm32I75RcSTnthCB5AdSTPsyYTRupe/KIdo3lL23O+KNe1O8QlMs5OQ8xJw4xW7bznu2YBuVTT9rZ1h+4MmVfcpJ6U+c2nmFYd8qkPOqtgZyJiv1TgyODNJBsdBQdQ1KQtEACJGFa6NgMbhbK5pV9STLeJzlz3ryGdp9AYnF+ygHEp00+6sMAynaOp5x2UAXKITkZoNmP46g35SM27EM5GTzctspMMnFohWlI2hAhoOxhnfdB/BETFkSAtvOaYzMwgTrtu09N3VJPjuX8lJM+5bOxAZpYpu5ZB85LGWxP2bwH1ulH6jQG5+V8tIs2Jc+oJ2UmnygvOZE6QGJKLJNjMMwf4JjEHPNMnqY8PgPqTz0oi4U4pf6IGPu1Ocr+iHwbs8y4aVcbK6BtEfH0QcZCSNmcn7rxeeq5jxhC8jN1DNQxgk1s2ZfyOS5xoz5tXYG84PzJL/qM4/cRIU+7OQ/n5NxpJ+3nM8ohbrynfqwP9SM5z7HEKuWSL6kTcB6257Y65XAcx2ggZ6L64kkC02kRaqBjSHw6io6l8yNeJEj2zQyWZGPAMOgokyUDM8nEe0QAct68hnafgAiQmBncfJ6BQLkMNpKI7dSVepN8lM2xJFwSMMLJAEo51J39cm7qS3Kybz6jfMqkfbznPAyEMVJOhIBj2joPyTmIA3WnbNpFPWhzBl6MLIzVgTrSNvomcaMcyk5/sfCecolFS8Q99U3bA4OUY4kn/c37CALwSntCBjntIha8b8vkPMSHhfOxT3Ii8YPEtN0XhvkDtIF9EpvUKXlLv0YsKZ+yhu0gNpTBOYk9cSXeHMv2tJEyiGfyK/sC5VEuZaav2s8h9U/bKe+uXAHKIPbElHPTh9R3COemrnxGeRzH0n5GHEJMriWxYonxUX/aT33JL+pPOxL35CvbaXuMkzJY5zji0eYycExyI/ElFuzLEiiLclioM+dmG3G4Pf+PSuKkJ9UXu8TKwGwFKh352NU/+IxXOpokaoWAV5KNjuRzOpWyWdhG8rWJnoGT15D6tPA5dSDps85xwCufUXYMLMlGWRkofEZSknQZoNSlFVASmyVGSZtoIzEgUYG2cPxw0LJ/1iMWKY/z55z5nDgGzkNsiRuDMCB4xJSyqRNlJt7Q1gvYj/pxzggB5VEun6XOOa7tv5D45zOOpx77YF/qnv5IzID6Uh/qnokGRPwg8WHh3KwnJxI/SL2yb+qdnGxJHmQ7OcD50y/JX+pFXfk852wnScSeWCV/eU+5HM9xlMH7ljamyS+OZ6FeOU/IetrOfskVtlPfIRF18pnjsz6Ec5PvqRNlsw68TztC4tJCbNiHz1hoA+cjlhlb5AjrHMs69aZetIPzQOrHsXxGu9i3hbrFOIakbtEhzknZ6TveE7PbMr9XEic9qX7ZBZ2BQcdCOrUVyCR8BmIGGQudnlc6OR2LQFAGicV6rhQiCEmIVnAgQtHCsdQrQtYOXM5L/Uk86sH2CEcGEPWlXhlIeW3rA+zD9sQin7exSIJHHEIGD3WNKOR4tuecaUvKY534UG62BdqTtlAm8W8Ng75In1B21vfBoKU/EoMMxpb0VUQgbdhHYh6hi/hB+nhI2gz0KfFgoW2caxg/yDaOY1/WIfUdkpyF9F/KoP3Uk9xIO1PXGBLr7Mf5cw76iBxJvYY5EFJWzks5GTPpr5A6EbOcKzFkSTsDZVBWoE5tW1s4D/2dNhI32swxlMH5kk+Uy2e8trAPMaGfaBP7UBavjBMWPsvYTF1oM2VnohBoP/WgLI6NsVAnytwH+cp5WZJrlEGssxCv27I1kHOw64Fb6Hg6OgM6g4WOZ7bRwr4MilZ0SBQEPNuS4BkIdHjKZL8kbLbR6a1hDNcDZXI8cBzHH0o6Bi/JGjOjLiR4BlSEIDDgKC9JH0GmjSRwSwwBSGTec66UzWvKH25nPcKzT4SG0HaOa8Un7Sf2lM0rArePxK0duBxPOSwZkJB99/XHPmJKlB8jHtKKIOVzHtqWeCVObb5kW/ZlHVinrneRGEfYOQf9xXr6JeWwnf2pe4S8jRek7xHnsSuEtCOfpy0wjGfaxXaOoR45L7nHeqAstrfjbwqUT04Tc45lPW2ifGLT9n0L/ck+aT9tJ1coh9yhjpRN3VuoJ+3n8xbikDZFY9iH4zPu9sE+bf4nR1k4H7G8zQ0N5BxUH+w6heCnU5PQw0EDdD6JE+EEkp19220kagZgOzgzMCDbWG8H1HA9UM9WKBCRfUkfSHb2o7wkO5C0JCuG2Aou7WV/Eh8idLQ5VwKhPTdt5zgWYpcYtrHNdupEmTnHPhEaQl3GzIHjWRjUCMFwBjmknS0Cdad+tDH1g5gTMWsH7RQ4jpi3OTGEGFBXzkn9yRfixZL4tfmSbcScY1mH5NFdRPCzLwt1JF4xvHzG+Smfc6XP6NeWHEMZxGlIjotAtgxzLu2inZybepAPxITPiEtI2xOTqVBfjqNsykyMgTbTx8RnTrkYO/uzUPYwN2PYY2VGVzgnZs3xxJhj5pDxSbs4D+d78NnvvlISJz2pPniSTEkoEpdkYHAMYTDQ0XR6oBMZTAyCQIeyH8JDuRmAmdFDBiwd3xoG558iqNSP/VLePqgXg5zzRQg5b5JuaFZsbwcDIjAWiyQv0H7MlbYiVrxyXuIU4YrocD7WE2+2Dc3pnBAL6sygjnkE+o1BiVnOgbjSxsy6x+Bzzk359CP75koh8WsNJHHiszZ+KecuYvbJQ+AY+jC5kM/YljyhDpynPS6QE/tmzDFf8oPyWhhvLCFtpZ2IcsZS2tnWi/L4bMy07oI2pi8ZX+Qkr4HPMaq5/Qy0hbKHucN2YnCXKfAZbeSVWB5zfs5NXHIX5dZAvlYSJz2p+O8GLp2XAUlHIMpZH8IgHw6KIRmswwEYEYUM/KGIZ0AdguOpazubngpiyYAZMyvq1EJS75uBR1wjFGlL2pD3aSuvDKwIbEThUqGO9N1cwSKmHHeXIGR2nthADKONH+uQ/TB3Ysg+7fa7SJzZd0j6JTnaQr7y2VgfUbe72kdusAxh/NCmHJu2sq1te/Im8Wf/sfKmwPGUQ5mMF8bg3Nn+PtLXw0kQ/cT21iyHZB9ieSyJETrGmNZAzkTFf9d5dEIGJJ3KgDlGmAMGRJkZCHRwiNhmG4OmTaAMoEOwH8tdCXoXnH/qufaBgTEQc5uB9VyJUC7t4j2xaA2E/YhDbqVdKtRt7OprCoeuqpgFM2ttc4N4tSKadUgMIXkF7fa7YP99V6vUob1VFCiXzzjHXBD8MYOhTZSZiVTaOmYgxJ6FejAuTxmTlEP55B/nv+vqcA5MxsjnIenbdmwP4VhMMbe0joE4MpYSVw3kTFT8nwQ+A3XsNtVcSCjEJwOB8kIGfLZx3jbJMoAOgQAxKO5K0LtAMHK74Fg4ljrEBBicLGkDdeN9BChxZjvnZ99TRKE31O3QLcJjoWxEjPgF4tKKaNYhEw8gfxLTqQaCmO/bj36JoLdkonOMgewj44v2QNpKO9u285p6YcYx3GOhHMYlMaXc4ZX30hBvzrPv6n0pcos47Xrwt69+oSROelLxf3IJmoHKoGFwnzIrYKCSQLllRfkhAyTbMmsP+fwQzPwpY8q+Y6ReU8RnH8QKAcztgDkGgumwnGLUvaF9c29fTYU+x5za2zIxjDZ+ycs2h44xkLvAzDnnGJw3E4QlIKbJXUhbaWfanvaxTz4/tZ3kJeUwJin30BXiqdBOzslrT9AqcuiJgfg49/NQ8d8lFYHvMRNuB0IY3rqI6IYMmEMkYY4VOM7D8aeKD3VNHdKWtIE68j5i1171IBa5jXWNkAOYL/kQhgbC5IbvqRChzNgheQWUcarJUVb7pXLLXeZyCpTLJC1tHRoIuUm9MFni0F6pncqpOX9JkEdMRrjSIWYayJmo+O+Sl8C3Ir4UYwbCIOFcEYCIbsiAmsLU/cZAuNp6LcHYr4gwjMxgeY1pcIWWK5drBFNARIlRGBoISwQ1+QLt+hJ9yDn29QXn2Wcup0C5tCNt3WcgbKNux36Bfi0QQ2L24LOv/k1JnPSk4v7kkvZcBsItK652IgCclwGSK6AMqN5wviVndTAUQNZpJ+vAK7EgLvLB3wOExC/iGgPBbFsBTV5Bm1vHwgyfc4zB+XtcnaeNyZXWQPKrKdrMubkKaa/U5FmeGMjnXv3rkjjpScV9l8QEvp0JLkUGejvIMYyIRNYjrJAB1Rt+1bLkvW04ZCB8Rjt7fa+wdvYZCLcn2i/zlzaQu6AOnG9pkiN5xSh4n6sd2sU644Or1rFfOskHZCKsgZyJivvuVgKBP+UXHvsYMxBu8zAwMqNkgPCefZiRcsun9xd84ZQfCowRAUwbhgbClVZ7L1+eZp+BtFeocE4D6QXtag2EcUCbaD/Qrnz/wXsmPLIfcoI4Pfjb//lXJXHSk4r7Dgbn0mIKYwYyFFXWdx1/u2R/XtfIUACHbUUM8l6eZRg/bivxPQlLe9WWPIE2t9ZEjCNtHRoIbWZc5me/1/pji6lkIvzgP/+Pj5XESU8q7l3Jr2cYDCG/vrlGAwFiIuPkVlXix0JejN3/Z3v7ujYOGQjv2Ua+8CqHYcJR8ia9qZh3hwHOYAgMGrblXm9rINz2yYBaI5gjYpc2cMWBeXrVMY3c0kn8YiBjAsr29nVtYBSZYIwZSK4+ZB4lb9Kbind3GOAMjLCbJdxuy0BpDaSdka2RoQDGLNsvgGU/w/jl10hj9//Z3r6ujUMGIsdR8ia9qXh3hwHOwAgMFrbld/f5kpBlqwaiKExjGD8gfmOPw2B7+7o2NJA+lLxJbyre3WGAMzBCvuzKbYmILIsGct2MGQgTjLHvjYgrP/xov19bE2MGwneDmVjJcZS8SW8q3t1hoLcGAgx6Bg9oIBLGDGQfxJV9hrm1FviOg1tzaSsGQpsysZLjKHmT3lS8u8OgGA7y9q9+I7L8WotbFVPE41LRQE7jmgwEo2BJWzWQZSh5k95UvLvDALlrkDN4YjJclSzxcLz7QgM5DQ1EAzmVkjfpTcW7OwyQuwY597EZOPw1OgbC+7XCzy55PEpEQQOZhwaigZxKyZv0puLdHQbIoWdO8fcT+VJxzQYSQYsoaCDzmGMgXKlyK5R914gG0oeSN+lNxbs7DBBE4RBbNhBFYRpzDIR92J/XNTI0EL5QN1dOp+RNelPx7g4D5FoNJM8xUhSmkVuA/Erv0LPZiPGaDQTD4JdYyZXk/lL/q/xaKXmT3lS8u8OTaa/VQFg0kOkkflNygP3WbCDkOjmfXEnu8yrHU/Imval4dwfzmGIg+d/oWzCQ/JJMA5mHBqKBnErJm/Sm4t2dqQaCyLJswUDSBg1kHnMNhB9ftP+pcE1oIH0oeZPeVLy7g3lM+XecGojMNRDEdsrk5BKJgeRqVQNZhpI36U3FuzsMcAbKIbZgIAgBgjA0EEVhGtdoIGmrBrIMJW/Sm4p3d/i/H1MNJJf0awYRiChoIPO4JgPJ/45JWzWQZSh5k95UvLuDKVyrgeT/WSgK07gmA8nfvKStMRC2y/GUvElvKt7dwRimCOgWDQR4r4FMY46B8OX5l1/71WYMhHXeayCnUfImval4XwyIQf4d7JpBBFoB5D23K+QwcwwE8WXSoYFIS8mb9KbifTHkdsQWDURRmIYGYq6cSsmb9KbifTFs1UBoT/v/T2Q/+Q+D12ggmCfveZyLHE/Jm/Sm4n0xbNVADj3TSZ5mGL99bNVAeJXjKXmT3lS8L4atGEj7dyAynzkGwv8Pn/JHqpfIm7/9w+45cRrIspS8SW8q3hfDVgyE+vPveeU4EFFuYx2CXJn6E/FLBKMgV2Ig773/513erPW/cV4KJW/Sm4r3xYCBMKAQhjVDG9ZugvcJgjolflszEPB25+mUvElvKt4XgwYicC0GMucHAzKdkjfpTcX7YsjPGDWQ6+ZaDARoq7c7l6XkTXpT8b4YNBCBqQby8a/8ePJz1i6VqW2V6ZS8SW8q3heDBiIwVVQxjlyFrBUNZHlK3qQ3Fe+LQQMR0EDkFErepDcV74thKwZC/RWF4+E7AQ1EjqXkTXpT8b4YNBABYqeByLGUvElvKt4XQwxkzYIAGshpzDEQ9uNxJmuFn/GaK8tS8ia9qXhfDDzaYSsGsvarqPvkmgxkaltlOiVv0puK98WQZwFpINcNgjolfp/+5s93M3gNRFpK3qQ3Fe+LQQMRmGogGAf5ooFIS8mb9KbifTFsxUCovwZyPNdmIPxrXlmOkjfpTcX7YuAppBqIXJuBmCvLUvImval4XxQIwkvf/kWtrRMMZK3/o+IS4H9k8IiSQ2zBQDAPDWRZSt6kNxXvi2LtggB8ubv2q6j7BEGdEj8NRMYoeZPeVLwvii0YCPXHROQ45hrIl1/7VW1ZHxrI8pS8SW8q3hfF2n+WCXyX43+VO56pBvKPP3h7ZyD8H5m1ooEsT8mb9KbifVHwpeIXXn2r1uQamWogGMfaDYTvyvy+bFlK3qQ3Fe+LAgNZsyDI6fB/PqbcAtyCgWCUU8xSplPyJr2peF8UzD5f+envak2uEQR1ym1MDUTGKHmT3lS8Lwq/OxDMY4opbMFAuF3rLdtlKXmT3lS8RVbJFgxElqfkTXpT8RZZJTEQb3lKS8mb9KbiLbJKvvPm73cGwv+REQklb9KbirfIKsk/INNApKXkTXpT8RZZJRqIjFHyJr2peIusEg1Exih5k95UvEVWSQzkR2+/W1tENJCzUfEWWSX5B2S8ioSSN+lNxVtklWggMkbJm/Sm4i2ySnhqAc9Oe+/9P9cWEQ3kbFS8RUQ2Q8mb9KbiLSKyGUrepDcVbxGRzVDyJr2peIuIbIaSN+lNxVtEZDOUvElvKt4iIpuh5E16U/EWEdkMJW/Sm4q3iMhmKHmT3lS8RUQ2Q8mb9KbiLSKyGUrepDcVbxGRzVDyJr2peIuIbIaSN+lNxVtEZDOUvElvKt4iIpuh5E1685nPfKZCvn5++ctf3nzpS1+qtfXz9a9//eaHP/xhra0fc+1y2VqufeQjH3mlJE568uKLL1bI1w8D4FOf+lStrZ+XXnrp5lvf+latrR9z7XLZYq6VxElPHNSXiwZyuZhrl40GciZuA/0ewXZxcXHZ0PJeSZyIiIiIiIiIiIiIiIiIiIiIiIiIiIiIiIiIiIiIHMHzN49efOHm4XMPVvZn/xPq/dzDmxee/FXqpbdxRj/s2rWF9jx38/CFD/5y+IWHz11oeya05flHT9px+bnWsKoxMmBO3dfczsuFgbHGgE6p9+N9Hj1fn+8G+KOb5x9cYjvn9cPzjy69z6a1Z9eOFx7ePEefXKwpzs+15x6+cMG51rKmMTJkTt3X3M4L5XGS3876Hj1awWz2AybXmySJOD3ecJtEl9fO2f2wa9cLF9tn09tzmf3RMivXnhKky2/bjpWMkVHm1H3N7bxUnnv++Quf+Y1zfL0vM2nmtYc23ArVBffZ5PbsPr/sWeD0vqFfBlcgTwnWWlizsM6p+5rbeWlcsBjdycx6P3W75BKZ0B6Eafc9wRr67FAda1b4fM3yWZ7cYrg0JsX7sYns2rJK81jBGLmDOXVfczsvjzWI0Rgz6v34VsTKBZfPk/Rr6LNDddzd9nnxgy/OL7lNB+v22DyetGXXtnXdY1/FGNnDnLqvuZ2XyRrEaIyJ9V5NwhxoD7OmJzP0NfTZoTo+I7KPf5F1kVchh9qy+3z4HcgFX1EN0DzkeNYgRmNMqPeqEubO9jS3R4bLo+cvs22zRXdLBnLBbRmgechpHBocl8qkQb2ids2p7xraNqGOXFWt4rbPwbY8NozV3cJa2xhp2dp4WS1rDe4z9X561rf7omxkxn6xs8ID7XmKNfTZpPY83raNvmmvEi+8b4rVjZGGu+u+ci0QEREREREREREREREREREREREREREREREREREREVkh+evxe35UB38d7iO5RUTugXqc+rTl2QcF3reB8HC8J8+eEhGRM4KBDGbwj59YOnhG0EU+dwsTW8fzpkREtsetgQwfJjdqILc89/DRZYm1t69ERC6LfQZyaXj7SkTkwphmIPXY8uEVQH2n8ljY8z0JS3Orqf3eZfQKoj2OZex7lrHbV8PjbhevUEREzsdBA9ljAO3/W3jh4cNbg4nA539kPLp5SNn574lPmU3xzHctHxz7lImM3L7i/G2dd/XRQEREzse0K5Ca7Q8F+om5PC34MZenbzk9W8bQBCD1aY999vbVY6N5+tjbbRqIiMj5WMJAnhb3lLnnltOTMnK1sWd58n/fOW7/7avhuUVE5Ezcm4Hsbl8dOu8t+359VcfHcDQSEZEzc98Gckj4KeuufdrvYp6pn4iI9OPeDCS3sEZF/3bfh9zC4phhOZDPQ5V9sB0iIrIY92cg7dXDs1/C7+qz7/bVmLFMvKIREZGFiIifYiAffOH9mPEyR36iO/ge48lS59l/+ypXHE1Zu7qMXa2IiMii5MpjuDxjJM+I/GORfuq7h91yK+ZjhoC5xGia5YPzDH6Ndeevr0IMpF2evooRERERERERERERERERERERkYvjwYP/D1ehNwKCbn4jAAAAAElFTkSuQmCC;movable=1;resizable=1;rotatable=1;deletable=1;editable=1;locked=0;connectable=1;container=0;" vertex="1" parent="gPzGehX2PZDCMDGjAwQs-1">
          <mxGeometry y="73.96000000000004" width="1160.04" height="870.04" as="geometry" />
        </mxCell>
        <mxCell id="gPzGehX2PZDCMDGjAwQs-3" value="&lt;font style=&quot;font-size: 39px;&quot;&gt;Diastole&lt;/font&gt;" style="text;html=1;align=center;verticalAlign=middle;whiteSpace=wrap;rounded=0;fontSize=8;movable=1;resizable=1;rotatable=1;deletable=1;editable=1;locked=0;connectable=1;container=0;" vertex="1" parent="gPzGehX2PZDCMDGjAwQs-1">
          <mxGeometry x="860.8316293671227" y="238.14412053647916" width="174.776217626745" height="127.22883014088225" as="geometry" />
        </mxCell>
        <mxCell id="gPzGehX2PZDCMDGjAwQs-4" value="" style="line;strokeWidth=10;html=1;fillColor=#e51400;fontColor=#ffffff;strokeColor=#B20000;dropTarget=0;movable=1;resizable=1;rotatable=1;deletable=1;editable=1;locked=0;connectable=1;container=0;" vertex="1" parent="gPzGehX2PZDCMDGjAwQs-1">
          <mxGeometry x="206.8013167743884" y="176.1629955796834" width="53.96215719225751" height="13.04911078368023" as="geometry" />
        </mxCell>
        <mxCell id="gPzGehX2PZDCMDGjAwQs-5" value="" style="line;strokeWidth=6;direction=south;html=1;perimeter=backbonePerimeter;points=[];outlineConnect=0;fillColor=none;fontColor=#ffffff;strokeColor=#B20000;dashed=1;movable=1;resizable=1;rotatable=1;deletable=1;editable=1;locked=0;connectable=1;container=0;" vertex="1" parent="gPzGehX2PZDCMDGjAwQs-1">
          <mxGeometry x="187.94004995550404" width="14.564684802228749" height="815.5694239800144" as="geometry" />
        </mxCell>
        <mxCell id="gPzGehX2PZDCMDGjAwQs-6" value="" style="shape=waypoint;sketch=0;fillStyle=solid;size=6;pointerEvents=1;points=[];fillColor=#e51400;resizable=1;rotatable=1;perimeter=centerPerimeter;snapToPoint=1;fontColor=#ffffff;strokeColor=#B20000;strokeWidth=10;fontSize=100;movable=1;deletable=1;editable=1;locked=0;connectable=1;container=0;" vertex="1" parent="gPzGehX2PZDCMDGjAwQs-1">
          <mxGeometry x="182.11417603461086" y="169.63844018784312" width="28.962916063860597" height="25.949180122553997" as="geometry" />
        </mxCell>
        <mxCell id="gPzGehX2PZDCMDGjAwQs-7" value="" style="strokeWidth=20;html=1;shape=mxgraph.flowchart.extract_or_measurement;whiteSpace=wrap;fillColor=#0050ef;fontColor=#ffffff;strokeColor=#001DBC;movable=1;resizable=1;rotatable=1;deletable=1;editable=1;locked=0;connectable=1;container=0;" vertex="1" parent="gPzGehX2PZDCMDGjAwQs-1">
          <mxGeometry x="398.47256877172003" y="182.6875509715228" width="3.6411712005571872" height="6.524555391840115" as="geometry" />
        </mxCell>
        <mxCell id="gPzGehX2PZDCMDGjAwQs-8" value="" style="line;strokeWidth=10;html=1;movable=1;resizable=1;rotatable=1;deletable=1;editable=1;locked=0;connectable=1;container=0;" vertex="1" parent="gPzGehX2PZDCMDGjAwQs-1">
          <mxGeometry x="260.7634739666473" y="326.22776959200564" width="101.95279361560124" height="39.147332351040696" as="geometry" />
        </mxCell>
        <mxCell id="gPzGehX2PZDCMDGjAwQs-9" value="&lt;font style=&quot;font-size: 38px;&quot;&gt;Systole&lt;/font&gt;" style="text;html=1;align=center;verticalAlign=middle;whiteSpace=wrap;rounded=0;fontSize=8;movable=1;resizable=1;rotatable=1;deletable=1;editable=1;locked=0;connectable=1;container=0;" vertex="1" parent="gPzGehX2PZDCMDGjAwQs-1">
          <mxGeometry x="244.68406194498675" y="283.8181595450451" width="151.60380410639905" height="52.19644313472092" as="geometry" />
        </mxCell>
        <mxCell id="gPzGehX2PZDCMDGjAwQs-10" value="" style="line;strokeWidth=10;html=1;movable=1;resizable=1;rotatable=1;deletable=1;editable=1;locked=0;connectable=1;container=0;" vertex="1" parent="gPzGehX2PZDCMDGjAwQs-1">
          <mxGeometry x="435.5396915933916" y="326.22776959200564" width="160.21153282451624" height="39.147332351040696" as="geometry" />
        </mxCell>
        <mxCell id="gPzGehX2PZDCMDGjAwQs-11" value="&lt;font style=&quot;font-size: 40px;&quot;&gt;Diastole&lt;/font&gt;" style="text;html=1;align=center;verticalAlign=middle;whiteSpace=wrap;rounded=0;fontSize=8;movable=1;resizable=1;rotatable=1;deletable=1;editable=1;locked=0;connectable=1;container=0;" vertex="1" parent="gPzGehX2PZDCMDGjAwQs-1">
          <mxGeometry x="435.5396915933916" y="247.93310488992483" width="174.776217626745" height="127.22883014088225" as="geometry" />
        </mxCell>
        <mxCell id="gPzGehX2PZDCMDGjAwQs-12" value="" style="line;strokeWidth=6;direction=south;html=1;perimeter=backbonePerimeter;points=[];outlineConnect=0;fillColor=none;fontColor=#ffffff;strokeColor=#B20000;dashed=1;movable=1;resizable=1;rotatable=1;deletable=1;editable=1;locked=0;connectable=1;container=0;" vertex="1" parent="gPzGehX2PZDCMDGjAwQs-1">
          <mxGeometry x="250.5099358658781" width="14.564684802228749" height="815.5694239800144" as="geometry" />
        </mxCell>
        <mxCell id="gPzGehX2PZDCMDGjAwQs-13" value="" style="line;strokeWidth=6;direction=south;html=1;perimeter=backbonePerimeter;points=[];outlineConnect=0;fillColor=none;fontColor=#ffffff;strokeColor=#B20000;dashed=1;movable=1;resizable=1;rotatable=1;deletable=1;editable=1;locked=0;connectable=1;container=0;" vertex="1" parent="gPzGehX2PZDCMDGjAwQs-1">
          <mxGeometry x="367.08567302291704" width="14.564684802228749" height="815.5694239800144" as="geometry" />
        </mxCell>
        <mxCell id="gPzGehX2PZDCMDGjAwQs-14" value="" style="line;strokeWidth=6;direction=south;html=1;perimeter=backbonePerimeter;points=[];outlineConnect=0;fillColor=none;fontColor=#ffffff;strokeColor=#B20000;dashed=1;movable=1;resizable=1;rotatable=1;deletable=1;editable=1;locked=0;connectable=1;container=0;" vertex="1" parent="gPzGehX2PZDCMDGjAwQs-1">
          <mxGeometry x="420.97500679116365" width="14.564684802228749" height="815.5694239800144" as="geometry" />
        </mxCell>
        <mxCell id="gPzGehX2PZDCMDGjAwQs-15" value="" style="line;strokeWidth=6;direction=south;html=1;perimeter=backbonePerimeter;points=[];outlineConnect=0;fillColor=none;fontColor=#ffffff;strokeColor=#B20000;dashed=1;movable=1;resizable=1;rotatable=1;deletable=1;editable=1;locked=0;connectable=1;container=0;" vertex="1" parent="gPzGehX2PZDCMDGjAwQs-1">
          <mxGeometry x="595.7512244179088" width="14.564684802228749" height="815.5694239800144" as="geometry" />
        </mxCell>
        <mxCell id="gPzGehX2PZDCMDGjAwQs-16" value="" style="line;strokeWidth=6;direction=south;html=1;perimeter=backbonePerimeter;points=[];outlineConnect=0;fillColor=none;fontColor=#ffffff;strokeColor=#B20000;dashed=1;movable=1;resizable=1;rotatable=1;deletable=1;editable=1;locked=0;connectable=1;container=0;" vertex="1" parent="gPzGehX2PZDCMDGjAwQs-1">
          <mxGeometry x="662.7487745081607" width="14.564684802228749" height="815.5694239800144" as="geometry" />
        </mxCell>
        <mxCell id="gPzGehX2PZDCMDGjAwQs-17" value="" style="line;strokeWidth=6;direction=south;html=1;perimeter=backbonePerimeter;points=[];outlineConnect=0;fillColor=none;fontColor=#ffffff;strokeColor=#B20000;dashed=1;movable=1;resizable=1;rotatable=1;deletable=1;editable=1;locked=0;connectable=1;container=0;" vertex="1" parent="gPzGehX2PZDCMDGjAwQs-1">
          <mxGeometry x="783.6356583666602" width="14.564684802228749" height="815.5694239800144" as="geometry" />
        </mxCell>
        <mxCell id="gPzGehX2PZDCMDGjAwQs-18" value="" style="line;strokeWidth=6;direction=south;html=1;perimeter=backbonePerimeter;points=[];outlineConnect=0;fillColor=none;fontColor=#ffffff;strokeColor=#B20000;dashed=1;movable=1;resizable=1;rotatable=1;deletable=1;editable=1;locked=0;connectable=1;container=0;" vertex="1" parent="gPzGehX2PZDCMDGjAwQs-1">
          <mxGeometry x="846.2638030162434" width="14.564684802228749" height="815.5694239800144" as="geometry" />
        </mxCell>
        <mxCell id="gPzGehX2PZDCMDGjAwQs-19" value="" style="line;strokeWidth=10;html=1;movable=1;resizable=1;rotatable=1;deletable=1;editable=1;locked=0;connectable=1;container=0;" vertex="1" parent="gPzGehX2PZDCMDGjAwQs-1">
          <mxGeometry x="678.8281865298204" y="326.22776959200564" width="101.95279361560124" height="39.147332351040696" as="geometry" />
        </mxCell>
        <mxCell id="gPzGehX2PZDCMDGjAwQs-20" value="&lt;font style=&quot;font-size: 36px;&quot;&gt;Systole&lt;/font&gt;" style="text;html=1;align=center;verticalAlign=middle;whiteSpace=wrap;rounded=0;fontSize=8;movable=1;resizable=1;rotatable=1;deletable=1;editable=1;locked=0;connectable=1;container=0;" vertex="1" parent="gPzGehX2PZDCMDGjAwQs-1">
          <mxGeometry x="658.379369067492" y="283.8181595450451" width="151.60380410639905" height="52.19644313472092" as="geometry" />
        </mxCell>
        <mxCell id="gPzGehX2PZDCMDGjAwQs-21" value="" style="line;strokeWidth=10;html=1;movable=1;resizable=1;rotatable=1;deletable=1;editable=1;locked=0;connectable=1;container=0;" vertex="1" parent="gPzGehX2PZDCMDGjAwQs-1">
          <mxGeometry x="856.4590823778035" y="326.22776959200564" width="160.21153282451624" height="39.147332351040696" as="geometry" />
        </mxCell>
        <mxCell id="gPzGehX2PZDCMDGjAwQs-22" value="&lt;font style=&quot;font-size: 38px;&quot;&gt;S1&lt;/font&gt;" style="text;html=1;align=center;verticalAlign=middle;whiteSpace=wrap;rounded=0;fontSize=8;movable=1;resizable=1;rotatable=1;deletable=1;editable=1;locked=0;connectable=1;container=0;" vertex="1" parent="gPzGehX2PZDCMDGjAwQs-1">
          <mxGeometry x="148.54257756547486" y="117.44199705312258" width="151.60380410639905" height="52.19644313472092" as="geometry" />
        </mxCell>
        <mxCell id="gPzGehX2PZDCMDGjAwQs-23" value="&lt;font style=&quot;font-size: 39px;&quot;&gt;S1&lt;/font&gt;" style="text;html=1;align=center;verticalAlign=middle;whiteSpace=wrap;rounded=0;fontSize=8;movable=1;resizable=1;rotatable=1;deletable=1;editable=1;locked=0;connectable=1;container=0;" vertex="1" parent="gPzGehX2PZDCMDGjAwQs-1">
          <mxGeometry x="563.708917853005" y="117.44199705312258" width="151.60380410639905" height="52.19644313472092" as="geometry" />
        </mxCell>
        <mxCell id="gPzGehX2PZDCMDGjAwQs-24" value="" style="line;strokeWidth=10;html=1;fillColor=#e51400;fontColor=#ffffff;strokeColor=#B20000;dropTarget=0;movable=1;resizable=1;rotatable=1;deletable=1;editable=1;locked=0;connectable=1;container=0;" vertex="1" parent="gPzGehX2PZDCMDGjAwQs-1">
          <mxGeometry x="606.004762518678" y="169.63844018784312" width="66.86646792703219" height="13.04911078368023" as="geometry" />
        </mxCell>
        <mxCell id="gPzGehX2PZDCMDGjAwQs-25" value="" style="shape=waypoint;sketch=0;fillStyle=solid;size=6;pointerEvents=1;points=[];fillColor=#e51400;resizable=1;rotatable=1;perimeter=centerPerimeter;snapToPoint=1;fontColor=#ffffff;strokeColor=#B20000;strokeWidth=10;fontSize=100;movable=1;deletable=1;editable=1;locked=0;connectable=1;container=0;" vertex="1" parent="gPzGehX2PZDCMDGjAwQs-1">
          <mxGeometry x="588.4688820167939" y="163.11388479600373" width="28.962916063860597" height="25.949180122553997" as="geometry" />
        </mxCell>
        <mxCell id="gPzGehX2PZDCMDGjAwQs-26" value="" style="strokeWidth=20;html=1;shape=mxgraph.flowchart.extract_or_measurement;whiteSpace=wrap;fillColor=#0050ef;fontColor=#ffffff;strokeColor=#001DBC;movable=1;resizable=1;rotatable=1;deletable=1;editable=1;locked=0;connectable=1;container=0;" vertex="1" parent="gPzGehX2PZDCMDGjAwQs-1">
          <mxGeometry x="817.1344334117857" y="176.1629955796834" width="3.6411712005571872" height="6.524555391840115" as="geometry" />
        </mxCell>
        <mxCell id="gPzGehX2PZDCMDGjAwQs-27" value="" style="endArrow=none;html=1;rounded=0;strokeWidth=10;movable=1;resizable=1;rotatable=1;deletable=1;editable=1;locked=0;connectable=1;" edge="1" parent="gPzGehX2PZDCMDGjAwQs-1">
          <mxGeometry width="50" height="50" relative="1" as="geometry">
            <mxPoint x="362.7162675822492" y="185.19298024198997" as="sourcePoint" />
            <mxPoint x="435.5396915933916" y="185.29737312826" as="targetPoint" />
          </mxGeometry>
        </mxCell>
        <mxCell id="gPzGehX2PZDCMDGjAwQs-28" value="" style="endArrow=none;html=1;rounded=0;strokeWidth=10;movable=1;resizable=1;rotatable=1;deletable=1;editable=1;locked=0;connectable=1;" edge="1" parent="gPzGehX2PZDCMDGjAwQs-1">
          <mxGeometry width="50" height="50" relative="1" as="geometry">
            <mxPoint x="786.5485953271054" y="178.66842485014968" as="sourcePoint" />
            <mxPoint x="859.3720193382487" y="178.7728177364188" as="targetPoint" />
          </mxGeometry>
        </mxCell>
        <mxCell id="gPzGehX2PZDCMDGjAwQs-29" value="&lt;font style=&quot;font-size: 39px;&quot;&gt;S2&lt;/font&gt;" style="text;html=1;align=center;verticalAlign=middle;whiteSpace=wrap;rounded=0;fontSize=8;movable=1;resizable=1;rotatable=1;deletable=1;editable=1;locked=0;connectable=1;container=0;" vertex="1" parent="gPzGehX2PZDCMDGjAwQs-1">
          <mxGeometry x="327.41147162164634" y="117.44199705312258" width="151.60380410639905" height="52.19644313472092" as="geometry" />
        </mxCell>
        <mxCell id="gPzGehX2PZDCMDGjAwQs-30" value="&lt;font style=&quot;font-size: 38px;&quot;&gt;S2&lt;/font&gt;" style="text;html=1;align=center;verticalAlign=middle;whiteSpace=wrap;rounded=0;fontSize=8;movable=1;resizable=1;rotatable=1;deletable=1;editable=1;locked=0;connectable=1;container=0;" vertex="1" parent="gPzGehX2PZDCMDGjAwQs-1">
          <mxGeometry x="746.0587715769088" y="117.44199705312258" width="151.60380410639905" height="52.19644313472092" as="geometry" />
        </mxCell>
      </root>
    </mxGraphModel>
  </diagram>
</mxfile>
